<?xml version="1.0" encoding="UTF-8"?>
<svg xmlns="http://www.w3.org/2000/svg" width="880" height="728" viewBox="0 0 880 728" role="img" aria-label="Activity over the last 30 days on GitHub">
<title>Last 30 days on GitHub</title>
<style><![CDATA[
:root{
  --card:#FFFBFE;
  --on-surface:#1D1B20;
  --on-surface-variant:#49454F;
  --outline-variant:#CAC4D0;
  --primary:#6750A4;
  --primary-container:#EADDFF;
  --on-primary-container:#21005D;
  --secondary-container:#E8DEF8;
  --on-secondary-container:#1D1B20;
  --tertiary:#7D5260;
  --tertiary-container:#633B48;
  --on-tertiary-container:#FFD8E4;
  --surface-container:#F3EDF7;
  --font:-apple-system, "Segoe UI", Roboto, "Helvetica Neue", Arial, "PingFang SC", "Microsoft YaHei", sans-serif;
}
@media (prefers-color-scheme: dark){
  :root{
    --card:#211F26;
    --on-surface:#E6E0E9;
    --on-surface-variant:#CAC4D0;
    --outline-variant:#49454F;
    --primary:#D0BCFF;
    --primary-container:#4F378B;
    --on-primary-container:#EADDFF;
    --secondary-container:#4A4458;
    --on-secondary-container:#E8DEF8;
    --tertiary:#EFB8C8;
    --tertiary-container:#633B48;
    --on-tertiary-container:#FFD8E4;
    --surface-container:#2B2930;
  }
}
text{font-family:var(--font);}
.card{fill:var(--card);stroke:var(--outline-variant);stroke-width:1;}
.title{font-size:24px;font-weight:600;fill:var(--on-surface);}
.range{font-size:12px;font-weight:400;fill:var(--on-surface-variant);}
.sect{font-size:14px;font-weight:500;fill:var(--on-surface-variant);}
.stat{fill:var(--secondary-container);}
.stat-num{font-size:28px;font-weight:600;fill:var(--on-secondary-container);}
.stat-label{font-size:14px;font-weight:500;fill:var(--on-secondary-container);}
.stat-sub{font-size:12px;font-weight:400;fill:var(--on-surface-variant);}
.note{font-size:12px;font-weight:400;fill:var(--on-surface-variant);}
.peak-tag{font-size:12px;font-weight:600;fill:var(--on-surface);}
.axis{font-size:12px;font-weight:400;fill:var(--on-surface-variant);}
.legend{font-size:12px;font-weight:400;fill:var(--on-surface-variant);}
.bar-own{fill:var(--primary);}
.bar-other{fill:var(--tertiary);}
.break{fill:none;stroke:var(--card);stroke-width:2;stroke-linecap:butt;}
.base{stroke:var(--outline-variant);stroke-width:1;}
.col-title{font-size:14px;font-weight:500;fill:var(--on-surface);}
.repo{font-size:14px;font-weight:400;fill:var(--on-surface);}
.repo-more{font-size:13px;font-weight:400;fill:var(--on-surface-variant);}
.repo-count{font-size:13px;font-weight:500;fill:var(--on-surface-variant);}
.none{font-size:13px;font-weight:400;fill:var(--on-surface-variant);}
.repobar-own{fill:var(--primary);}
.repobar-other{fill:var(--tertiary);}
.repobar-more{fill:var(--outline-variant);}
.foot{font-size:12px;font-weight:400;fill:var(--on-surface-variant);}
.empty-box{fill:var(--surface-container);stroke:var(--outline-variant);stroke-width:1;stroke-dasharray:7 7;}
.dot-own{fill:var(--primary);}
.dot-mid{fill:var(--outline-variant);}
.dot-other{fill:var(--tertiary);}
.quip{font-size:22px;font-weight:500;fill:var(--on-surface);}
.quip-sub{font-size:14px;font-weight:400;fill:var(--on-surface-variant);}
]]></style>
<rect class="card" x="1" y="1" width="878" height="726" rx="28" ry="28"/>
<text x="48" y="68" class="title">Last 30 days on GitHub</text><text x="832" y="66" class="range" text-anchor="end">2026-08-29 → 2026-09-27</text><rect class="stat" x="48" y="100" width="184" height="108" rx="12" ry="12"/><text x="68" y="148" class="stat-num">74</text><text x="68" y="174" class="stat-label">Commits</text><text x="68" y="196" class="stat-sub">Own 74 · Others 0</text><rect class="stat" x="248" y="100" width="184" height="108" rx="12" ry="12"/><text x="268" y="148" class="stat-num">9</text><text x="268" y="174" class="stat-label">Pull requests</text><text x="268" y="196" class="stat-sub">Own 8 · Others 1</text><rect class="stat" x="448" y="100" width="184" height="108" rx="12" ry="12"/><text x="468" y="148" class="stat-num">8</text><text x="468" y="174" class="stat-label">Issues</text><text x="468" y="196" class="stat-sub">Own 0 · Others 8</text><rect class="stat" x="648" y="100" width="184" height="108" rx="12" ry="12"/><text x="668" y="148" class="stat-num">0</text><text x="668" y="174" class="stat-label">Reviews</text><text x="668" y="196" class="stat-sub">Own 0 · Others 0</text><text x="48" y="246" class="sect">Daily activity</text><circle class="dot-own" cx="646.88" cy="242" r="4"/><text x="656.88" y="246" class="legend">Your repos</text><circle class="dot-other" cx="748.08" cy="242" r="4"/><text x="758.08" y="246" class="legend">Other repos</text><text x="48" y="266" class="note">Peak 50 on Sep 21 · Average 4.4 / day</text><line class="base" x1="48" y1="394" x2="832" y2="394"/><path class="bar-own" d="M 262.29 394 L 262.29 372.73 Q 262.29 369.73 265.29 369.73 L 274.97 369.73 Q 277.97 369.73 277.97 372.73 L 277.97 394 Z"/><path class="bar-own" d="M 314.56 394 L 314.56 369.27 Q 314.56 366.27 317.56 366.27 L 327.24 366.27 Q 330.24 366.27 330.24 369.27 L 330.24 394 Z"/><path class="bar-own" d="M 445.23 394 L 445.23 372.73 Q 445.23 369.73 448.23 369.73 L 457.91 369.73 Q 460.91 369.73 460.91 372.73 L 460.91 394 Z"/><path class="bar-other" d="M 628.16 394 L 628.16 392.27 Q 628.16 390.53 629.89 390.53 L 642.11 390.53 Q 643.84 390.53 643.84 392.27 L 643.84 394 Z"/><path class="bar-own" d="M 654.29 394 L 654.29 293 Q 654.29 290 657.29 290 L 666.97 290 Q 669.97 290 669.97 293 L 669.97 394 Z"/><path class="break" d="M 654.29 306 L 669.97 298 M 654.29 311 L 669.97 303"/><text x="662.13" y="280" class="peak-tag" text-anchor="middle">↑50</text><rect class="bar-own" x="680.43" y="355.87" width="15.68" height="38.13"/><path class="bar-other" d="M 680.43 355.87 L 680.43 351.93 Q 680.43 348.93 683.43 348.93 L 693.11 348.93 Q 696.11 348.93 696.11 351.93 L 696.11 355.87 Z"/><rect class="bar-own" x="732.69" y="359.33" width="15.68" height="34.67"/><path class="bar-other" d="M 732.69 359.33 L 732.69 351.93 Q 732.69 348.93 735.69 348.93 L 745.37 348.93 Q 748.37 348.93 748.37 351.93 L 748.37 359.33 Z"/><rect class="bar-own" x="758.83" y="348.93" width="15.68" height="45.07"/><path class="bar-other" d="M 758.83 348.93 L 758.83 317.27 Q 758.83 314.27 761.83 314.27 L 771.51 314.27 Q 774.51 314.27 774.51 317.27 L 774.51 348.93 Z"/><rect class="bar-own" x="784.96" y="362.8" width="15.68" height="31.2"/><path class="bar-other" d="M 784.96 362.8 L 784.96 361.07 Q 784.96 359.33 786.69 359.33 L 798.91 359.33 Q 800.64 359.33 800.64 361.07 L 800.64 362.8 Z"/><text x="64.8" y="414" class="axis" text-anchor="middle">08-29</text><text x="191.73" y="414" class="axis" text-anchor="middle">09-03</text><text x="322.4" y="414" class="axis" text-anchor="middle">09-08</text><text x="453.07" y="414" class="axis" text-anchor="middle">09-13</text><text x="583.73" y="414" class="axis" text-anchor="middle">09-18</text><text x="714.4" y="414" class="axis" text-anchor="middle">09-23</text><text x="48" y="456" class="col-title">My repos</text><text x="48" y="487" class="repo">sogeisetsu/asset-inventory</text><text x="424" y="487" class="repo-count" text-anchor="end">111</text><path class="repobar-own" d="M 268 477 L 375 477 Q 380 477 380 482 L 380 482 Q 380 487 375 487 L 268 487 Z"/><text x="48" y="515" class="repo">sogeisetsu/opencode-go-mo…</text><text x="424" y="515" class="repo-count" text-anchor="end">76</text><path class="repobar-own" d="M 268 505 L 339.68 505 Q 344.68 505 344.68 510 L 344.68 510 Q 344.68 515 339.68 515 L 268 515 Z"/><text x="48" y="543" class="repo">sogeisetsu/sogeisetsu</text><text x="424" y="543" class="repo-count" text-anchor="end">8</text><path class="repobar-own" d="M 268 533 L 272.04 533 Q 276.07 533 276.07 537.04 L 276.07 538.96 Q 276.07 543 272.04 543 L 268 543 Z"/><text x="48" y="571" class="repo">sogeisetsu/awesome-agent-…</text><text x="424" y="571" class="repo-count" text-anchor="end">2</text><path class="repobar-own" d="M 268 561 L 270 561 Q 272 561 272 563 L 272 569 Q 272 571 270 571 L 268 571 Z"/><text x="48" y="660" class="note">4 repos total</text><text x="456" y="456" class="col-title">Repos I contributed to</text><text x="456" y="487" class="repo">openchamber/openchamber</text><text x="832" y="487" class="repo-count" text-anchor="end">10</text><path class="repobar-other" d="M 676 477 L 783 477 Q 788 477 788 482 L 788 482 Q 788 487 783 487 L 676 487 Z"/><text x="456" y="515" class="repo">vercel-labs/skills</text><text x="832" y="515" class="repo-count" text-anchor="end">4</text><path class="repobar-other" d="M 676 505 L 715.8 505 Q 720.8 505 720.8 510 L 720.8 510 Q 720.8 515 715.8 515 L 676 515 Z"/><text x="456" y="543" class="repo">antongulin/opencode-skill…</text><text x="832" y="543" class="repo-count" text-anchor="end">3</text><path class="repobar-other" d="M 676 533 L 704.6 533 Q 709.6 533 709.6 538 L 709.6 538 Q 709.6 543 704.6 543 L 676 543 Z"/><text x="456" y="571" class="repo">VoltAgent/awesome-agent-s…</text><text x="832" y="571" class="repo-count" text-anchor="end">3</text><path class="repobar-other" d="M 676 561 L 704.6 561 Q 709.6 561 709.6 566 L 709.6 566 Q 709.6 571 704.6 571 L 676 571 Z"/><text x="456" y="599" class="repo">anomalyco/opencode</text><text x="832" y="599" class="repo-count" text-anchor="end">2</text><path class="repobar-other" d="M 676 589 L 693.4 589 Q 698.4 589 698.4 594 L 698.4 594 Q 698.4 599 693.4 599 L 676 599 Z"/><text x="456" y="627" class="repo-more">4 more repos</text><text x="832" y="627" class="repo-count" text-anchor="end">4</text><path class="repobar-more" d="M 676 617 L 715.8 617 Q 720.8 617 720.8 622 L 720.8 622 Q 720.8 627 715.8 627 L 676 627 Z"/><text x="456" y="660" class="note">9 repos total</text><text x="48" y="692" class="foot">Data from GitHub contribution stats · Updated daily</text>
</svg>
