<?xml version="1.0" encoding="UTF-8"?>
<svg xmlns="http://www.w3.org/2000/svg" width="880" height="718" viewBox="0 0 880 718" role="img" aria-label="Activity over the last 30 days on GitHub">
<title>Last 30 days on GitHub</title>
<style><![CDATA[
:root{
  --card:#FFFBFE;
  --on-surface:#1D1B20;
  --on-surface-variant:#49454F;
  --outline-variant:#CAC4D0;
  --primary:#6750A4;
  --primary-container:#EADDFF;
  --on-primary-container:#21005D;
  --secondary-container:#E8DEF8;
  --on-secondary-container:#1D1B20;
  --tertiary:#7D5260;
  --tertiary-container:#633B48;
  --on-tertiary-container:#FFD8E4;
  --surface-container:#F3EDF7;
  --font:-apple-system, "Segoe UI", Roboto, "Helvetica Neue", Arial, "PingFang SC", "Microsoft YaHei", sans-serif;
}
@media (prefers-color-scheme: dark){
  :root{
    --card:#211F26;
    --on-surface:#E6E0E9;
    --on-surface-variant:#CAC4D0;
    --outline-variant:#49454F;
    --primary:#D0BCFF;
    --primary-container:#4F378B;
    --on-primary-container:#EADDFF;
    --secondary-container:#4A4458;
    --on-secondary-container:#E8DEF8;
    --tertiary:#EFB8C8;
    --tertiary-container:#633B48;
    --on-tertiary-container:#FFD8E4;
    --surface-container:#2B2930;
  }
}
text{font-family:var(--font);}
.card{fill:var(--card);stroke:var(--outline-variant);stroke-width:1;}
.title{font-size:24px;font-weight:600;fill:var(--on-surface);}
.range{font-size:12px;font-weight:400;fill:var(--on-surface-variant);}
.sect{font-size:14px;font-weight:500;fill:var(--on-surface-variant);}
.stat{fill:var(--secondary-container);}
.stat-num{font-size:28px;font-weight:600;fill:var(--on-secondary-container);}
.stat-label{font-size:14px;font-weight:500;fill:var(--on-secondary-container);}
.stat-sub{font-size:12px;font-weight:400;fill:var(--on-surface-variant);}
.note{font-size:12px;font-weight:400;fill:var(--on-surface-variant);}
.peak-tag{font-size:12px;font-weight:600;fill:var(--on-surface);}
.axis{font-size:12px;font-weight:400;fill:var(--on-surface-variant);}
.legend{font-size:12px;font-weight:400;fill:var(--on-surface-variant);}
.bar-own{fill:var(--primary);}
.bar-other{fill:var(--tertiary);}
.break{fill:none;stroke:var(--card);stroke-width:2;stroke-linecap:butt;}
.base{stroke:var(--outline-variant);stroke-width:1;}
.col-title{font-size:14px;font-weight:500;fill:var(--on-surface);}
.repo{font-size:14px;font-weight:400;fill:var(--on-surface);}
.repo-more{font-size:13px;font-weight:400;fill:var(--on-surface-variant);}
.repo-count{font-size:13px;font-weight:500;fill:var(--on-surface-variant);}
.none{font-size:13px;font-weight:400;fill:var(--on-surface-variant);}
.repobar-own{fill:var(--primary);}
.repobar-other{fill:var(--tertiary);}
.repobar-more{fill:var(--outline-variant);}
.foot{font-size:12px;font-weight:400;fill:var(--on-surface-variant);}
.empty-box{fill:var(--surface-container);stroke:var(--outline-variant);stroke-width:1;stroke-dasharray:7 7;}
.dot-own{fill:var(--primary);}
.dot-mid{fill:var(--outline-variant);}
.dot-other{fill:var(--tertiary);}
.quip{font-size:22px;font-weight:500;fill:var(--on-surface);}
.quip-sub{font-size:14px;font-weight:400;fill:var(--on-surface-variant);}
]]></style>
<rect class="card" x="1" y="1" width="878" height="716" rx="28" ry="28"/>
<text x="48" y="68" class="title">Last 30 days on GitHub</text><text x="832" y="66" class="range" text-anchor="end">2026-09-10 → 2026-10-09</text><rect class="stat" x="48" y="100" width="184" height="108" rx="12" ry="12"/><text x="68" y="148" class="stat-num">267</text><text x="68" y="174" class="stat-label">Commits</text><text x="68" y="196" class="stat-sub">Owned 248 · Others 19</text><rect class="stat" x="248" y="100" width="184" height="108" rx="12" ry="12"/><text x="268" y="148" class="stat-num">13</text><text x="268" y="174" class="stat-label">Pull requests</text><text x="268" y="196" class="stat-sub">Owned 8 · Others 5</text><rect class="stat" x="448" y="100" width="184" height="108" rx="12" ry="12"/><text x="468" y="148" class="stat-num">18</text><text x="468" y="174" class="stat-label">Issues</text><text x="468" y="196" class="stat-sub">Owned 0 · Others 18</text><rect class="stat" x="648" y="100" width="184" height="108" rx="12" ry="12"/><text x="668" y="148" class="stat-num">0</text><text x="668" y="174" class="stat-label">Reviews</text><text x="668" y="196" class="stat-sub">Owned 0 · Others 0</text><text x="48" y="246" class="sect">Daily activity</text><circle class="dot-own" cx="640.16" cy="242" r="4"/><text x="650.16" y="246" class="legend">Owned repos</text><circle class="dot-other" cx="748.08" cy="242" r="4"/><text x="758.08" y="246" class="legend">Other repos</text><text x="48" y="271" class="note">Peak 50 on Sep 21 · Average 8.1/day</text><line class="base" x1="48" y1="384" x2="832" y2="384"/><path class="bar-own" d="M 131.63 384 L 131.63 372.44 Q 131.63 369.44 134.63 369.44 L 144.31 369.44 Q 147.31 369.44 147.31 372.44 L 147.31 384 Z"/><path class="bar-other" d="M 314.56 384 L 314.56 382.96 Q 314.56 381.92 315.6 381.92 L 329.2 381.92 Q 330.24 381.92 330.24 382.96 L 330.24 384 Z"/><path class="bar-own" d="M 340.69 384 L 340.69 283 Q 340.69 280 343.69 280 L 353.37 280 Q 356.37 280 356.37 283 L 356.37 384 Z"/><rect class="bar-own" x="366.83" y="361.12" width="15.68" height="22.88"/><path class="bar-other" d="M 366.83 361.12 L 366.83 359.04 Q 366.83 356.96 368.91 356.96 L 380.43 356.96 Q 382.51 356.96 382.51 359.04 L 382.51 361.12 Z"/><rect class="bar-own" x="419.09" y="363.2" width="15.68" height="20.8"/><path class="bar-other" d="M 419.09 363.2 L 419.09 359.96 Q 419.09 356.96 422.09 356.96 L 431.77 356.96 Q 434.77 356.96 434.77 359.96 L 434.77 363.2 Z"/><rect class="bar-own" x="445.23" y="356.96" width="15.68" height="27.04"/><path class="bar-other" d="M 445.23 356.96 L 445.23 339.16 Q 445.23 336.16 448.23 336.16 L 457.91 336.16 Q 460.91 336.16 460.91 339.16 L 460.91 356.96 Z"/><rect class="bar-own" x="471.36" y="365.28" width="15.68" height="18.72"/><path class="bar-other" d="M 471.36 365.28 L 471.36 364.24 Q 471.36 363.2 472.4 363.2 L 486 363.2 Q 487.04 363.2 487.04 364.24 L 487.04 365.28 Z"/><rect class="bar-own" x="523.63" y="359.04" width="15.68" height="24.96"/><path class="bar-other" d="M 523.63 359.04 L 523.63 324.6 Q 523.63 321.6 526.63 321.6 L 536.31 321.6 Q 539.31 321.6 539.31 324.6 L 539.31 359.04 Z"/><rect class="bar-own" x="549.76" y="371.52" width="15.68" height="12.48"/><path class="bar-other" d="M 549.76 371.52 L 549.76 368.28 Q 549.76 365.28 552.76 365.28 L 562.44 365.28 Q 565.44 365.28 565.44 368.28 L 565.44 371.52 Z"/><path class="bar-own" d="M 575.89 384 L 575.89 378.68 Q 575.89 375.68 578.89 375.68 L 588.57 375.68 Q 591.57 375.68 591.57 378.68 L 591.57 384 Z"/><path class="bar-own" d="M 602.03 384 L 602.03 376.6 Q 602.03 373.6 605.03 373.6 L 614.71 373.6 Q 617.71 373.6 617.71 376.6 L 617.71 384 Z"/><rect class="bar-own" x="654.29" y="327.84" width="15.68" height="56.16"/><path class="bar-other" d="M 654.29 327.84 L 654.29 324.6 Q 654.29 321.6 657.29 321.6 L 666.97 321.6 Q 669.97 321.6 669.97 324.6 L 669.97 327.84 Z"/><path class="bar-own" d="M 680.43 384 L 680.43 362.04 Q 680.43 359.04 683.43 359.04 L 693.11 359.04 Q 696.11 359.04 696.11 362.04 L 696.11 384 Z"/><rect class="bar-own" x="706.56" y="367.36" width="15.68" height="16.64"/><path class="bar-other" d="M 706.56 367.36 L 706.56 364.12 Q 706.56 361.12 709.56 361.12 L 719.24 361.12 Q 722.24 361.12 722.24 364.12 L 722.24 367.36 Z"/><path class="bar-other" d="M 732.69 384 L 732.69 382.96 Q 732.69 381.92 733.73 381.92 L 747.33 381.92 Q 748.37 381.92 748.37 382.96 L 748.37 384 Z"/><rect class="bar-own" x="758.83" y="369.44" width="15.68" height="14.56"/><path class="bar-other" d="M 758.83 369.44 L 758.83 364.12 Q 758.83 361.12 761.83 361.12 L 771.51 361.12 Q 774.51 361.12 774.51 364.12 L 774.51 369.44 Z"/><rect class="bar-own" x="784.96" y="363.2" width="15.68" height="20.8"/><path class="bar-other" d="M 784.96 363.2 L 784.96 359.96 Q 784.96 356.96 787.96 356.96 L 797.64 356.96 Q 800.64 356.96 800.64 359.96 L 800.64 363.2 Z"/><text x="64.8" y="404" class="axis" text-anchor="middle">09-10</text><text x="191.73" y="404" class="axis" text-anchor="middle">09-15</text><text x="322.4" y="404" class="axis" text-anchor="middle">09-20</text><text x="453.07" y="404" class="axis" text-anchor="middle">09-25</text><text x="583.73" y="404" class="axis" text-anchor="middle">09-30</text><text x="714.4" y="404" class="axis" text-anchor="middle">10-05</text><text x="48" y="446" class="col-title">Owned repos</text><text x="48" y="477" class="repo">meld-deepresearch</text><text x="424" y="477" class="repo-count" text-anchor="end">148</text><path class="repobar-own" d="M 268 467 L 375 467 Q 380 467 380 472 L 380 472 Q 380 477 375 477 L 268 477 Z"/><text x="48" y="505" class="repo">asset-inventory</text><text x="424" y="505" class="repo-count" text-anchor="end">101</text><path class="repobar-own" d="M 268 495 L 339.43 495 Q 344.43 495 344.43 500 L 344.43 500 Q 344.43 505 339.43 505 L 268 505 Z"/><text x="48" y="533" class="repo">sogeisetsu</text><text x="424" y="533" class="repo-count" text-anchor="end">95</text><path class="repobar-own" d="M 268 523 L 334.89 523 Q 339.89 523 339.89 528 L 339.89 528 Q 339.89 533 334.89 533 L 268 533 Z"/><text x="48" y="561" class="repo">opencode-go-model-picker</text><text x="424" y="561" class="repo-count" text-anchor="end">85</text><path class="repobar-own" d="M 268 551 L 327.32 551 Q 332.32 551 332.32 556 L 332.32 556 Q 332.32 561 327.32 561 L 268 561 Z"/><text x="48" y="589" class="repo">opencode-skill-creator</text><text x="424" y="589" class="repo-count" text-anchor="end">16</text><path class="repobar-own" d="M 268 579 L 275.11 579 Q 280.11 579 280.11 584 L 280.11 584 Q 280.11 589 275.11 589 L 268 589 Z"/><text x="48" y="617" class="repo-more">1 more repos</text><text x="424" y="617" class="repo-count" text-anchor="end">2</text><path class="repobar-more" d="M 268 607 L 270 607 Q 272 607 272 609 L 272 615 Q 272 617 270 617 L 268 617 Z"/><text x="48" y="650" class="note">6 repos total</text><text x="456" y="446" class="col-title">Contributed to</text><text x="456" y="477" class="repo">antongulin/opencode-skill…</text><text x="832" y="477" class="repo-count" text-anchor="end">44</text><path class="repobar-other" d="M 676 467 L 783 467 Q 788 467 788 472 L 788 472 Q 788 477 783 477 L 676 477 Z"/><text x="456" y="505" class="repo">openchamber/openchamber</text><text x="832" y="505" class="repo-count" text-anchor="end">23</text><path class="repobar-other" d="M 676 495 L 729.55 495 Q 734.55 495 734.55 500 L 734.55 500 Q 734.55 505 729.55 505 L 676 505 Z"/><text x="456" y="533" class="repo">vercel-labs/skills</text><text x="832" y="533" class="repo-count" text-anchor="end">4</text><path class="repobar-other" d="M 676 523 L 681.18 523 Q 686.18 523 686.18 528 L 686.18 528 Q 686.18 533 681.18 533 L 676 533 Z"/><text x="456" y="561" class="repo">alvinunreal/oh-my-opencod…</text><text x="832" y="561" class="repo-count" text-anchor="end">3</text><path class="repobar-other" d="M 676 551 L 679.82 551 Q 683.64 551 683.64 554.82 L 683.64 557.18 Q 683.64 561 679.82 561 L 676 561 Z"/><text x="456" y="589" class="repo">anomalyco/opencode</text><text x="832" y="589" class="repo-count" text-anchor="end">3</text><path class="repobar-other" d="M 676 579 L 679.82 579 Q 683.64 579 683.64 582.82 L 683.64 585.18 Q 683.64 589 679.82 589 L 676 589 Z"/><text x="456" y="617" class="repo-more">10 more repos</text><text x="832" y="617" class="repo-count" text-anchor="end">17</text><path class="repobar-more" d="M 676 607 L 714.27 607 Q 719.27 607 719.27 612 L 719.27 612 Q 719.27 617 714.27 617 L 676 617 Z"/><text x="456" y="650" class="note">15 repos total</text><text x="48" y="682" class="foot">Data from GitHub contribution stats · Updated daily</text>
</svg>
